# xmcd
#
# Track frame offsets: 
#        210
#        13705
#        36675
#        52247
#        61887
#        79120
#        95812
#        111505
#        126842
#        143220
#        157990
#        176242
#        195630
#        211980
#        226665
#        247675
#        264767
#        284697
#        298475
#        316947
#
# Disc length: 4432 seconds
#
# Revision: 0
# Processed by: cddbd v1.5.2PL0 Copyright (c) Steve Scherf et al.
# Submitted via: ExactAudioCopy v0.95b4
#
DISCID=31114e14
DTITLE=The Bottom of the Top includes Bonus Album Blues - Phillip Walk
DTITLE=er
DYEAR=1988
DGENRE=Blues
TTITLE0=I Can't Lose (With the Stuff I Use)
TTITLE1=Tin Pan Alley
TTITLE2=Hello Central
TTITLE3=Hello My Darling
TTITLE4=Laughing and Clowning
TTITLE5=Crazy Girl
TTITLE6=It's All in Your Mind
TTITLE7=The Bottom of the Top
TTITLE8=Hey, Hey, Baby's Gone
TTITLE9=Cryin' Time
TTITLE10=How Many More Years
TTITLE11=90 Proof
TTITLE12=What'd You Hope to Gain
TTITLE13=What Did I Do Wrong
TTITLE14=Don't Be Afraid of the Dark
TTITLE15=Big Rear Window
TTITLE16=Her Own Keys
TTITLE17=Talk to the Man
TTITLE18=Sometime Girl
TTITLE19=I had a Dream
EXTD=
EXTT0=
EXTT1=
EXTT2=
EXTT3=
EXTT4=
EXTT5=
EXTT6=
EXTT7=
EXTT8=
EXTT9=
EXTT10=
EXTT11=
EXTT12=
EXTT13=
EXTT14=
EXTT15=
EXTT16=
EXTT17=
EXTT18=
EXTT19=
PLAYORDER=
